<svg xmlns="http://www.w3.org/2000/svg" viewBox="0 0 49.14 45.09"><defs><style>.cls-1{fill:#fff;}</style></defs><title>customer-assistant</title><g id="Layer_2" data-name="Layer 2"><g id="Layer_2-2" data-name="Layer 2"><path class="cls-1" d="M9.13,29.6a3.61,3.61,0,1,0,3.6,3.61A3.61,3.61,0,0,0,9.13,29.6Zm0,5.52A1.92,1.92,0,1,1,11,33.21,1.91,1.91,0,0,1,9.13,35.12Z"/><path class="cls-1" d="M19.25,29.6a3.61,3.61,0,1,0,3.61,3.61A3.61,3.61,0,0,0,19.25,29.6Zm0,5.52a1.92,1.92,0,1,1,1.91-1.91A1.92,1.92,0,0,1,19.25,35.12Z"/><rect class="cls-1" x="10.96" y="39.72" width="6.44" height="1.69"/><path class="cls-1" d="M28.25,37.51A1.26,1.26,0,0,1,28,38,1.7,1.7,0,0,0,28.25,37.51Z"/><path class="cls-1" d="M47.14,0H24.08a2,2,0,0,0-2,2V19.3a2,2,0,0,0,2,2h1.46v4.1a2,2,0,0,0,2,2,2,2,0,0,0,1.51-.7l4.63-5.41H47.14a2,2,0,0,0,2-2V2A2,2,0,0,0,47.14,0Zm.31,19.3a.3.3,0,0,1-.31.3H33.3a.85.85,0,0,0-.64.3l-4.88,5.7a.3.3,0,0,1-.34.09.29.29,0,0,1-.21-.29V20.45a.85.85,0,0,0-.84-.85H24.08a.31.31,0,0,1-.31-.3V2a.33.33,0,0,1,.31-.32H47.14a.32.32,0,0,1,.31.32Z"/><rect class="cls-1" x="28.69" y="6.92" width="13.84" height="1.69"/><rect class="cls-1" x="28.69" y="11.54" width="8.08" height="1.69"/><path class="cls-1" d="M28.37,32.26v4.59a2.1,2.1,0,0,1,0,.36c0,.1-.05.2-.09.3A1.7,1.7,0,0,1,28,38a1.74,1.74,0,0,1-1.39.69h-.07v6.44H1.84V38.65H1.76A1.76,1.76,0,0,1,0,36.88v-4.6a1.76,1.76,0,0,1,1.76-1.76h.08V27.69a4.53,4.53,0,0,1,4.53-4.53h6.51V15.72h1.7v7.44h9.84v1.69h-18a2.84,2.84,0,0,0-2.84,2.84v4.52H1.76a.08.08,0,0,0-.07.07v4.6a.09.09,0,0,0,.07.08H3.53V43.4h21.3V37H26.6a.08.08,0,0,0,.08-.08V32.26a.08.08,0,0,0-.07-.08H24.84V28.36h1.7v2.13h.07A1.76,1.76,0,0,1,28.37,32.26Z"/><path class="cls-1" d="M26.68,36.85v0a.08.08,0,0,1-.08.08H24.84v0h1.77A.07.07,0,0,0,26.68,36.85Z"/></g></g></svg>