<svg xmlns="http://www.w3.org/2000/svg" viewBox="0 0 39.97 41.17">
    <defs>
        <style>
            .cls-1{fill:#fff;}
        </style>
    </defs>
    <title>
        digital-self-service
    </title>
    <g id="Layer_2" data-name="Layer 2">
        <g id="Layer_2-2" data-name="Layer 2">
            <path d="M26.69,0H12.58A3.64,3.64,0,0,0,8.94,3.65V14.94h1.65v-9h18.1v23H10.59V19.17H8.94V32.58a4,4,0,0,0,3.64,3.65H26.69a4,4,0,0,0,3.65-3.65V3.65A3.65,3.65,0,0,0,26.69,0Zm2,32.58A2.06,2.06,0,0,1,28,33.91a2.12,2.12,0,0,1-1.34.67H12.58a2.34,2.34,0,0,1-2-2v-2h18.1Zm0-28.34H10.59V3.65a2,2,0,0,1,2-2H26.69a2,2,0,0,1,2,2Z" class="cls-1"/>
            <rect width="3.53" height="1.65" x="18.22" y="31.76" class="cls-1"/>
            <path d="M40,22.58,36.57,26l-3.41-3.4,1.17-1.17,1.41,1.41V7.88a2,2,0,0,0-2-2H31.63V4.23h2.12A3.66,3.66,0,0,1,37.4,7.88V22.82l1.41-1.41Z" class="cls-1"/>
            <path d="M4.23,7.88v3.65l1.42-1.41,1.16,1.17L3.4,14.7,0,11.29l1.16-1.17,1.42,1.41V7.88A3.66,3.66,0,0,1,6.23,4.23H7.64V5.89H6.23A2,2,0,0,0,4.23,7.88Z" class="cls-1"/>
            <rect width="1.65" height="1.41" x="35.74" y="26.93" class="cls-1"/>
            <rect width="1.65" height="1.41" x="35.74" y="29.76" class="cls-1"/>
            <path d="M16.81,39.52v1.65h-7A7.19,7.19,0,0,1,2.58,34V29.05H4.23V34a5.54,5.54,0,0,0,5.53,5.53Z" class="cls-1"/>
            <path d="M37.4,32.58V34a7.19,7.19,0,0,1-7.18,7.18H23.87V39.52h6.35A5.53,5.53,0,0,0,35.74,34V32.58Z" class="cls-1"/>
            <path d="M21.51,17.06l-3.41,3.4L16.94,19.3l1.41-1.42H6.23a2,2,0,0,0-2,2V22H2.58V19.88a3.66,3.66,0,0,1,3.65-3.65H18.35l-1.41-1.41,1.16-1.17Z" class="cls-1"/>
            <rect width="1.65" height="1.41" x="2.58" y="23.41" class="cls-1"/>
            <rect width="1.65" height="1.41" x="2.58" y="26.23" class="cls-1"/>
            <rect width="1.41" height="1.65" x="18.22" y="39.52" class="cls-1"/>
            <rect width="1.41" height="1.65" x="21.05" y="39.52" class="cls-1"/>
        </g>
    </g>
</svg>
