<svg xmlns="http://www.w3.org/2000/svg" viewBox="0 0 50.45 44.35"><defs><style>.cls-1{fill:#fff;}</style></defs><title>smart-assistant</title><g id="Layer_2" data-name="Layer 2"><g id="Layer_2-2" data-name="Layer 2"><path class="cls-1" d="M20.37,19.41a1.07,1.07,0,1,1-1.07-1.08A1.07,1.07,0,0,1,20.37,19.41Z"/><path class="cls-1" d="M50.45,11.18c0,6.16-6,11.16-13.46,11.16a15,15,0,0,1-9.26-3.07A4.5,4.5,0,0,0,28.81,18,13.35,13.35,0,0,0,37,20.66c6.49,0,11.78-4.26,11.78-9.48S43.48,1.68,37,1.68c-6.16,0-11.23,3.84-11.74,8.69a4.71,4.71,0,0,0-.85-.08,4.89,4.89,0,0,0-.85.08C24.06,4.59,29.9,0,37,0,44.42,0,50.45,5,50.45,11.18Z"/><path class="cls-1" d="M42.88,11V9.93a2.31,2.31,0,0,0-2.32-2.31H37.41V4.21H36.14V7.62H33.41a2.33,2.33,0,0,0-2.32,2.31V11a1.06,1.06,0,0,0-.84,1v2.21a.1.1,0,0,0,0,.07.78.78,0,0,0,.05.18,1.2,1.2,0,0,0,.18.31,1,1,0,0,0,.59.36v3H42.88v-3a1.07,1.07,0,0,0,.6-.35.85.85,0,0,0,.18-.32.82.82,0,0,0,.06-.34V12A1,1,0,0,0,42.88,11Zm-.42,2.92h-.83v2.95H32.35V13.93h-.83V12.24h.84V9.93a1.06,1.06,0,0,1,1-1h7.15a1,1,0,0,1,1,1v2.31h.85Z"/><rect class="cls-1" x="35.28" y="15.2" width="3.43" height="1.25"/><path class="cls-1" d="M39.3,10.56a1.9,1.9,0,1,0,1.89,1.89A1.89,1.89,0,0,0,39.3,10.56Zm0,2.53a.65.65,0,0,1-.63-.64.64.64,0,0,1,1.28,0A.65.65,0,0,1,39.3,13.09Z"/><path class="cls-1" d="M34.67,10.56a1.9,1.9,0,1,0,1.89,1.89A1.9,1.9,0,0,0,34.67,10.56Zm0,2.53a.65.65,0,0,1-.63-.64.63.63,0,0,1,.63-.63.64.64,0,0,1,.65.63A.66.66,0,0,1,34.67,13.09Z"/><path class="cls-1" d="M13,44.35H9.8l-2-1.53L9,41.28l.27.21V36.62h0a8.65,8.65,0,0,1-3.37-6.5V27.59a7.58,7.58,0,0,1,4.72-6.67l.28.66.37.89a5.94,5.94,0,0,0-3.68,5.12v2.52c0,2.68,2,5.29,5.12,6.67l-.16.37L12,38.32c-.36-.16-.7-.33-1-.52v4.25H10Z"/><path class="cls-1" d="M28.61,24.22h-.84V22.78a8.89,8.89,0,0,0-.57-3.1,9,9,0,0,0-.65-1.46.2.2,0,0,0,0-.08,3.65,3.65,0,0,0,1-1.29,3.35,3.35,0,0,0,.36-1.53,3.52,3.52,0,0,0-2.67-3.41,3,3,0,0,0-.85-.11,3.05,3.05,0,0,0-.85.11A3.44,3.44,0,0,0,21.6,13.2a10.11,10.11,0,0,0-1.4-.69,12,12,0,0,0-4.63-.91c-7,0-12.2,5.9-12.2,11.18v1.44H2.52A2.52,2.52,0,0,0,0,26.74V31a2.53,2.53,0,0,0,2.52,2.53H5.05V22.78c0-4.49,4.49-9.5,10.52-9.5a10.52,10.52,0,0,1,3.92.75,10.81,10.81,0,0,1,1.45.71,2.72,2.72,0,0,0-.05.58,3.51,3.51,0,0,0,3.51,3.51,2.69,2.69,0,0,0,.57,0,10.51,10.51,0,0,1,.71,1.58,7.88,7.88,0,0,1,.41,2.42v9.8h0a6.65,6.65,0,0,1-4.69,6.32h0a7.67,7.67,0,0,1-1.7.39h0a3.56,3.56,0,0,1-.47.05,2.52,2.52,0,0,0-2.37-1.66H16a2.53,2.53,0,1,0,0,5h.84A2.51,2.51,0,0,0,19.21,41a3.57,3.57,0,0,0,.46,0h0a9.3,9.3,0,0,0,1.7-.33h0a8.53,8.53,0,0,0,6.32-7.17h.91A2.54,2.54,0,0,0,31.14,31V26.74A2.53,2.53,0,0,0,28.61,24.22ZM3.37,31.79H2.52A.85.85,0,0,1,1.68,31V26.74a.85.85,0,0,1,.84-.84h.85Zm13.46,9.26H16a.84.84,0,1,1,0-1.68h.84a.84.84,0,1,1,0,1.68ZM25.59,16.7l-.19.16a1.8,1.8,0,0,1-1,.29,1.74,1.74,0,0,1-.69-.14h0a1.82,1.82,0,0,1-1.13-1.69,1.82,1.82,0,0,1,.45-1.2,1.78,1.78,0,0,1,.82-.55,2.11,2.11,0,0,1,.56-.09,1.82,1.82,0,0,1,1.39.64,1.8,1.8,0,0,1,.42.89,1.55,1.55,0,0,1,0,.31A1.77,1.77,0,0,1,25.59,16.7ZM29.45,31a.85.85,0,0,1-.84.84h-.84V25.9h.84a.85.85,0,0,1,.84.84Z"/><path class="cls-1" d="M25.24,27.59v1.68a6.15,6.15,0,0,1-.84-.06v.93a8.71,8.71,0,0,1-3,6.79,6.64,6.64,0,0,1-.73.55L20,36.53l-.29-.44a6.45,6.45,0,0,0,1.12-1,7.15,7.15,0,0,0,1.87-5V28.86a23.18,23.18,0,0,1-11.11-7.5,6.79,6.79,0,0,1-1.51-3.87h1.68a6.19,6.19,0,0,0,1.79,3.7,21.56,21.56,0,0,0,10,6.18A7.54,7.54,0,0,0,25.24,27.59Z"/><path class="cls-1" d="M22.83,42.82l-2,1.53H17.66l3-2.3h-1V41a9.3,9.3,0,0,0,1.7-.33h0v.83l.26-.2Z"/><rect class="cls-1" x="33.38" y="27.44" width="1.7" height="1.68" transform="translate(-9.99 32.33) rotate(-44.8)"/><rect class="cls-1" x="36.38" y="24.43" width="1.7" height="1.68" transform="translate(-6.97 33.73) rotate(-45)"/><rect class="cls-1" x="36.39" y="27.43" width="1.68" height="1.7" transform="translate(-9.09 34.61) rotate(-45)"/><rect class="cls-1" x="33.39" y="24.42" width="1.68" height="1.7" transform="translate(-7.85 31.6) rotate(-45)"/><rect class="cls-1" x="14.93" y="8.51" width="2.38" height="1.68" transform="translate(-1.89 14.14) rotate(-45)"/><rect class="cls-1" x="19.14" y="4.31" width="2.38" height="1.68" transform="translate(2.31 15.88) rotate(-45)"/><rect class="cls-1" x="19.49" y="8.16" width="1.68" height="2.38" transform="translate(-0.66 17.11) rotate(-45)"/><rect class="cls-1" x="15.28" y="3.96" width="1.68" height="2.38" transform="translate(1.08 12.91) rotate(-45)"/></g></g></svg>