<svg xmlns="http://www.w3.org/2000/svg" viewBox="0 0 38.41 45.22"><defs><style>.cls-1{fill:#fff;}</style></defs><title>unified-desktop</title><g id="Layer_2" data-name="Layer 2"><g id="Layer_2-2" data-name="Layer 2"><path class="cls-1" d="M35.44,12.71H34v1.7h1.41a1.27,1.27,0,0,1,1.27,1.26V33.18h-35V15.67A1.27,1.27,0,0,1,3,14.41v-1.7a3,3,0,0,0-3,3V36.14a3,3,0,0,0,3,3H14.12v2.68h1.7V39.11h7.47v2.68H25V39.11H35.44a3,3,0,0,0,3-3V15.67A3,3,0,0,0,35.44,12.71Zm1.27,23.43a1.27,1.27,0,0,1-1.27,1.27H3a1.27,1.27,0,0,1-1.27-1.27V34.88h35Z"/><path class="cls-1" d="M32.76,15.67h-1.7v-14H9.47V3H7.77V1.56A1.56,1.56,0,0,1,9.32,0H31.2a1.56,1.56,0,0,1,1.56,1.56Z"/><polygon class="cls-1" points="27.07 45.22 25.91 44.05 13.21 44.05 12.04 45.22 10.84 44.01 12.5 42.35 26.62 42.35 28.28 44.01 27.07 45.22"/><path class="cls-1" d="M29.24,5.09V21.32H27.53V5.24H5.94V9.18h17.5v1.7H5.94V29.79H4.24V5.09A1.56,1.56,0,0,1,5.8,3.53H27.68A1.56,1.56,0,0,1,29.24,5.09Z"/><rect class="cls-1" x="7.21" y="6.35" width="1.41" height="1.71"/><rect class="cls-1" x="10.03" y="6.35" width="1.41" height="1.71"/><rect class="cls-1" x="12.85" y="6.35" width="1.41" height="1.71"/><rect class="cls-1" x="27.53" y="22.73" width="1.71" height="1.41"/><rect class="cls-1" x="31.06" y="19.91" width="1.71" height="1.41"/><rect class="cls-1" x="31.06" y="17.09" width="1.71" height="1.41"/><path class="cls-1" d="M23.37,21.07l2.08-.86-1.6-3.86-2.08.85a5.62,5.62,0,0,0-.69-.69L22,14.45l-3.87-1.61-.85,2.08a5.35,5.35,0,0,0-1,0l-.86-2.08-3.86,1.61.86,2.06a7.6,7.6,0,0,0-.7.69l-2.07-.85L8,20.2l2.08.87a3.94,3.94,0,0,0,0,1L8,22.9l1.6,3.86,2.07-.86a5.69,5.69,0,0,0,.7.69l-.86,2.08,3.86,1.61.86-2.08a8,8,0,0,0,1,0l.85,2.08L22,28.67l-.87-2.07a5.7,5.7,0,0,0,.69-.7l2.08.86,1.6-3.86L23.37,22A7.85,7.85,0,0,0,23.37,21.07Zm.1,2.65L23,24.79l-1.77-.73-.36.49a4.94,4.94,0,0,1-1.18,1.19l-.49.35L20,27.85l-1.07.44-.72-1.76-.6.1a5,5,0,0,1-1.69,0l-.59-.1-.73,1.76-1.07-.44.73-1.76-.49-.35a5.17,5.17,0,0,1-1.19-1.19l-.35-.49-1.76.72L10,23.72,11.76,23l-.1-.59a5.32,5.32,0,0,1,0-1.69l.1-.59L10,19.38l.44-1.06,1.76.73.35-.48a5.21,5.21,0,0,1,1.19-1.2l.49-.35-.73-1.76,1.07-.45.73,1.77.59-.1a4.8,4.8,0,0,1,1.69,0l.6.1.72-1.77,1.07.45L19.24,17l.49.35a5.21,5.21,0,0,1,1.19,1.2l.35.48L23,18.32l.43,1.06-1.76.74.1.59a4.8,4.8,0,0,1,0,1.69l-.1.59Z"/><path class="cls-1" d="M19.83,20.27A3.3,3.3,0,0,0,18,18.46a3.25,3.25,0,0,0-2.56,0,3.34,3.34,0,0,0,1.29,6.43A3.12,3.12,0,0,0,18,24.65a3.29,3.29,0,0,0,1.82-1.82A3.34,3.34,0,0,0,19.83,20.27Zm-1.4,2a1.83,1.83,0,0,1-3.38,0,1.83,1.83,0,0,1,1-2.4,1.85,1.85,0,0,1,1.41,0,1.84,1.84,0,0,1,1,2.4Z"/></g></g></svg>